<svg width="320" height="229" viewBox="0 0 320 229" fill="none" xmlns="http://www.w3.org/2000/svg">
<path d="M200.973 0.221783C203.55 -0.259872 207.301 0.160092 209.97 0.383892C222.85 1.46376 235.884 10.2182 241.928 21.7823C245.274 28.1862 248.182 36.0224 251.123 42.7648C254.195 49.803 257.961 56.9937 259.783 64.5148C263.143 54.8725 267.292 44.6566 271.243 35.2003C276.004 23.807 278.569 9.60592 291.131 4.8917C296.484 2.85387 302.424 3.09378 307.602 5.55577C316.615 9.78414 321.89 20.741 319.371 30.5216C317.654 37.1914 314.863 43.692 312.408 50.1329C307.522 62.9329 302.546 75.6975 297.478 88.423L282.732 126.836C279.337 135.779 276.066 144.58 272.249 153.221C244.358 216.371 175.919 245.612 108.925 217.393C108.851 217.357 95.0065 210.589 87.0002 204.5C78.7371 198.216 67.5002 186.5 67.5002 186.5C67.4787 186.471 64.5413 182.497 65.0002 180.5C65.6896 177.5 70.5895 171.886 75.1203 174.878C82.2807 181.188 87.6503 188.199 95.4562 193.941C114.434 207.902 135.747 216.809 159.545 215.996C165.57 215.792 171.903 215.824 177.908 214.727C206.194 209.371 230.757 192.666 247.386 169.356C252.15 162.8 256.289 155.8 259.748 148.451C262.468 142.53 265.321 134.463 267.845 128.148L287.389 77.963C293.554 61.8645 299.546 45.5617 306.103 29.6153C310.884 17.9878 294.219 11.2292 289.606 24.423C287.79 29.6136 285.245 35.9628 283.239 41.1358C277.708 55.7285 272.014 70.257 266.155 84.7189C265.438 86.5302 261.42 97.3946 260.849 98.2599L260.503 98.1612C260.149 96.3722 257.821 91.9465 256.959 89.963C254.091 83.2893 251.187 76.6324 248.249 69.9913C243.565 59.4 239.322 48.6285 234.419 38.169C229.825 28.3661 227.017 20.8887 216.551 16.3565C209.008 13.0897 200.428 13.1228 192.841 16.1358C187.993 18.0757 183.821 21.4269 180.854 25.7667C176.73 31.9122 171.311 48.7765 168.657 56.2901L154.589 95.2442C151.934 102.485 149.222 110.58 146.19 117.545C140.828 108.363 136.116 94.3748 131.874 84.3136C130.099 80.1049 128.76 75.5039 126.588 71.4444C125.125 71.0438 123.573 70.5593 122.042 70.673C120.064 70.8179 118.169 71.8653 116.887 73.3771C114.916 75.7001 113.749 79.6612 114.006 82.7189C114.208 85.1215 130.058 124.328 131.585 127.243C132.804 129.569 134.392 131.779 136.406 133.463C139.572 136.106 143.762 137.546 147.872 137.103C152.539 136.601 156.618 133.789 159.514 130.179C161.638 126.871 164.044 118.646 165.506 114.635L185.479 58.544C187.661 52.5908 192.866 36.0857 198.37 33.4786C210.999 27.498 218.019 42.0477 223.026 53.7901L236.101 84.3858L245.854 106.549C253.385 123.26 253.414 118.683 246.261 135.57C237.151 157.07 223.615 173.985 203.586 185.939C173.857 203.683 138.992 200.936 111.986 179.283C110.227 177.877 106.657 175.429 105.582 173.4C104.683 171.67 104.519 169.642 105.129 167.786C106.224 164.389 109.526 162.06 112.968 163.589C116.505 165.065 119.223 167.966 122.312 170.155C126.971 173.462 133.084 177.573 138.466 179.578C155.496 186.099 174.405 185.395 190.916 177.626C215.371 166.192 228.67 145.595 237.67 120.962C234.04 114.231 229.69 102.883 226.525 95.6241L204.41 44.7257C201.573 51.1251 197.796 63.601 195.314 70.7452L181.001 110.775C178.374 118.349 175.937 126.302 172.727 133.615C165.85 149.281 147.841 154.796 132.917 147.369C120.06 140.972 117.284 127.889 112.364 115.518C110.191 110.056 107.816 104.915 105.912 99.419C103.699 106.038 101.419 112.634 99.0744 119.205C94.5898 131.994 91.3243 143.63 77.4005 148.893C69.9525 151.739 61.696 151.489 54.4318 148.195C49.3342 145.835 45.0372 142.003 42.0822 137.181C37.8811 130.409 33.0057 114.916 29.9875 107.165C20.4444 82.77 11.0901 58.2987 1.92593 33.755C-0.658666 26.6321 -0.738907 23.7152 2.27652 16.6534C6.96046 5.68642 20.0669 0.614589 30.7619 5.49131C38.3711 8.96131 41.9223 16.3708 44.6164 23.9132C51.3881 43.2636 59.5457 62.1419 66.215 81.5128C69.9727 72.0853 73.2151 62.3506 76.7834 52.8487C78.5317 48.1919 80.4545 42.0674 82.7472 37.7784C86.0756 31.5726 91.7109 26.9675 98.4054 24.9835C109.056 21.7848 120.702 25.8504 126.503 35.4894C130.691 42.4503 133.541 51.619 136.525 59.2501C139.359 66.508 142.755 74.326 144.904 81.7501C147.077 74.2876 150.842 65.238 153.676 57.8937C163.909 31.3825 167.42 4.39971 200.973 0.221783ZM22.2043 17.0001C10.0215 19.0219 16.2998 33.1512 19.3937 41.2267L29.172 66.5333L45.3146 108.837C45.4193 109.11 45.5225 109.387 45.6261 109.668C45.6074 109.656 45.5882 109.646 45.5695 109.634C45.5942 109.66 45.6181 109.687 45.6427 109.714C48.5892 117.719 51.1768 128.906 57.882 133.976C66.1407 140.223 77.7615 136.264 81.7736 126.942C84.4454 120.519 86.7053 113.523 89.0431 106.929L101.262 72.672C104.747 62.7182 106.584 49.4021 120 53.0265C119.047 50.6911 118.047 48.0912 116.985 45.8292C115.178 42.4091 113.32 38.9398 109.297 37.7413C94.7963 33.4221 91.8393 50.5091 87.9503 61.0284L73.5412 100.785C70.7785 108.498 67.9195 124.1 57.175 120.754C51.4109 118.961 49.3916 113.751 45.6427 109.714C45.6371 109.699 45.6318 109.683 45.6261 109.668C52.407 113.866 57.4233 114.871 62.8693 107.976C60.6419 103.784 58.7468 98.546 57.049 94.0616C50.3493 76.3609 37.3134 41.339 37.2716 41.2267C37.2716 41.2267 32.7714 28.1339 29.8117 22.1837C27.9573 18.3655 26.1967 17.3205 22.2043 17.0001Z" fill="#1890FF"/>
</svg>
